<svg width="230" height="330" viewBox="0 0 230 330" fill="none" xmlns="http://www.w3.org/2000/svg">
<path d="M70.3406 267.217L72.2753 283.823L115 294.464L157.725 283.823L159.659 267.217H70.3406Z" fill="#302F2F"/>
<path d="M90.1713 278.18C112.42 290.594 137.41 304.299 143.859 305.427C170.945 310.264 190.776 323.646 188.68 329.127C188.68 329.127 124.835 319.937 77.9182 310.425C59.6997 306.878 72.9202 268.507 90.1713 278.18Z" fill="#F4B382"/>
<path d="M90.1713 278.18C72.9202 268.507 57.6038 259.8 53.8956 258.511C40.3527 253.351 8.4301 241.421 1.33619 265.121C-5.75773 288.66 18.4261 293.335 35.6772 299.946C44.0609 303.17 59.6997 306.878 77.757 310.586C80.4978 299.139 84.5284 288.176 90.1713 278.18Z" fill="#3D3C3C"/>
<path d="M139.829 278.18C117.58 290.594 92.5896 304.299 86.1406 305.427C59.0548 310.264 39.2241 323.646 41.32 329.127C41.32 329.127 105.165 319.937 152.082 310.425C170.3 306.878 157.08 268.507 139.829 278.18Z" fill="#F4B382"/>
<path d="M139.829 278.18C157.08 268.507 172.396 259.8 176.104 258.511C189.647 253.351 221.57 241.421 228.664 265.121C235.758 288.66 211.574 293.335 194.323 299.946C185.939 303.17 170.3 306.878 152.243 310.586C149.502 299.139 145.472 288.176 139.829 278.18Z" fill="#3D3C3C"/>
<path d="M157.725 158.712C160.788 140.171 145.633 106.475 145.633 106.475C138.378 105.508 130.8 105.185 125.157 105.185H104.843C99.0387 105.185 91.6223 105.508 84.3672 106.475C84.3672 106.475 69.212 140.333 72.2753 158.712C75.1774 175.963 80.0141 201.276 70.3406 267.217H115H159.659C149.986 201.276 154.823 175.963 157.725 158.712Z" fill="#B3233B"/>
<path d="M115.806 149.522L115.645 187.894L124.835 189.99C141.28 194.504 157.402 198.051 174.008 200.792C192.872 203.533 205.77 205.629 214.96 206.274C220.603 206.596 225.923 204.5 226.568 202.565C227.213 200.631 224.15 193.214 221.731 187.088C216.088 172.255 186.262 120.341 171.59 112.602C161.11 107.12 145.472 106.475 145.472 106.475C145.472 106.475 152.404 143.235 156.596 143.396C160.788 143.557 164.012 149.039 174.653 161.453C180.941 169.353 185.455 174.351 192.388 183.057C192.388 183.057 178.684 180.639 125.318 177.898L118.869 148.394L115.806 149.522Z" fill="#F4B382"/>
<path d="M114.033 149.522V187.894L105.004 189.99C88.559 194.504 72.5977 198.051 55.8303 200.792C36.9669 203.533 24.0689 205.629 14.879 206.274C9.23615 206.596 3.91572 204.5 3.27082 202.565C2.62592 200.631 5.6892 193.214 8.10758 187.088C13.7505 172.255 43.5771 120.341 58.2486 112.602C68.7283 107.12 84.3672 106.475 84.3672 106.475C84.3672 106.475 77.4344 143.235 73.2426 143.396C69.0507 143.557 65.8262 149.039 55.1854 161.453C48.8976 169.353 44.3833 174.351 37.4506 183.057C37.4506 183.057 51.1547 180.639 104.359 177.898L110.808 148.394L114.033 149.522Z" fill="#F4B382"/>
<path d="M128.543 86.6445H101.296C105.488 99.5425 101.618 105.347 101.618 105.347C101.618 105.347 102.424 113.73 115 113.73C127.414 113.73 128.22 105.347 128.22 105.347C128.22 105.347 124.351 99.3813 128.543 86.6445Z" fill="#E2A379"/>
<path d="M142.892 49.079C142.892 16.6727 130.316 9.25633 115 9.25633C99.5224 9.25633 87.108 16.6727 87.108 49.079C87.108 60.0423 89.0427 68.5872 91.9448 75.1975C98.3938 89.7078 109.518 94.867 115 94.867C120.482 94.867 131.606 89.7078 138.055 75.1975C140.957 68.5872 142.892 60.0423 142.892 49.079Z" fill="#F4B382"/>
<path d="M122.9 81.6465C122.9 81.6465 119.353 83.42 115 83.42C110.647 83.42 107.1 81.6465 107.1 81.6465C107.1 81.1628 109.68 78.2608 111.292 78.0995C112.259 77.9383 115 78.9057 115 78.9057C115 78.9057 117.58 77.9383 118.708 78.0995C120.32 78.2608 122.9 81.6465 122.9 81.6465Z" fill="#D6876B"/>
<path d="M122.9 81.6465C122.9 81.6465 119.353 84.871 115 84.871C110.647 84.871 107.1 81.6465 107.1 81.6465C107.1 81.6465 107.906 80.6792 112.582 80.3567C113.388 80.3567 114.355 81.0016 115 81.0016C115.645 81.0016 116.451 80.3567 117.096 80.3567C121.933 80.6792 122.9 81.6465 122.9 81.6465Z" fill="#CC785E"/>
<path d="M115 20.8645C123.103 20.8645 129.672 16.3892 129.672 10.8686C129.672 5.34796 123.103 0.87262 115 0.87262C106.897 0.87262 100.328 5.34796 100.328 10.8686C100.328 16.3892 106.897 20.8645 115 20.8645Z" fill="#4C230C"/>
<path d="M144.021 50.53C144.021 18.1237 135.153 9.41757 115 9.41757C94.8469 9.41757 85.9795 18.285 85.9795 50.53C85.9795 50.53 129.027 41.1789 129.027 29.4095C129.027 41.1789 144.021 50.53 144.021 50.53Z" fill="#602F0F"/>
<path d="M84.3672 60.526C85.8183 69.3934 87.7529 69.7158 90.4938 69.2321L87.5917 50.0463C84.8509 50.53 82.755 51.6586 84.3672 60.526Z" fill="#F4B382"/>
<path d="M142.408 50.0463L139.506 69.2321C142.247 69.7158 144.021 69.2322 145.633 60.526C147.245 51.6586 145.149 50.53 142.408 50.0463Z" fill="#F4B382"/>
<path d="M89.204 51.8198C89.0428 50.8525 89.0428 50.0464 89.0428 49.2402C89.0428 48.2729 89.204 47.628 89.204 47.628L85.9795 48.9178C85.9795 49.4015 85.9795 49.8851 85.9795 50.3688C85.9795 50.3688 86.3019 50.2076 86.9468 50.0464C86.9468 50.0464 86.9468 50.0464 86.7856 50.0464C87.2693 50.8525 87.753 51.9811 88.3979 53.7545C88.3979 53.9158 89.6877 54.8831 89.204 51.8198Z" fill="#602F0F"/>
<path d="M140.796 49.4014C140.796 50.0463 140.796 51.0137 140.635 51.8198C140.151 54.7219 141.441 53.7545 141.441 53.7545C141.925 51.9811 142.57 50.8525 143.053 50.0464C143.698 50.2076 144.021 50.3688 144.021 50.3688C144.021 49.8851 144.021 49.4015 144.021 48.9178L140.796 47.628C140.635 47.7892 140.796 48.4341 140.796 49.4014Z" fill="#602F0F"/>
</svg>
