<svg width="502" height="192" viewBox="0 0 502 192" fill="none" xmlns="http://www.w3.org/2000/svg">
<path d="M332.258 131.147C332.258 131.147 319.843 122.763 309.041 121.312C286.47 118.41 272.604 133.888 272.604 133.888C272.604 133.888 262.286 180.643 273.572 183.223C295.015 188.06 312.749 189.833 323.39 191.284C330.645 192.252 344.994 158.394 344.994 158.394L332.258 131.147Z" fill="#3D3C3C"/>
<path d="M247.131 26.5119C244.712 31.9936 269.38 39.4099 275.829 43.9242L285.825 43.763C335.643 69.3978 362.084 75.6856 362.084 75.6856C391.105 92.2918 448.662 115.67 461.077 118.733C473.491 121.796 482.358 97.451 470.911 91.4857C459.626 85.5204 448.823 81.4897 437.215 76.4917C425.446 71.4938 381.109 60.208 370.468 56.8223C369.017 56.3386 291.306 31.1874 291.306 31.1874C291.306 31.1874 288.404 29.7364 284.212 26.0282C278.408 20.7078 267.929 16.8384 261.318 16.9996C255.676 16.9996 249.388 21.0302 247.131 26.5119Z" fill="#E2A379"/>
<path d="M269.541 38.4425C269.541 38.4425 262.447 34.5731 260.029 38.1201C257.933 41.1834 257.61 42.312 275.667 43.763C275.667 43.9242 276.474 41.5058 269.541 38.4425Z" fill="#E2A379"/>
<path d="M469.46 155.815C483.971 142.433 475.587 122.28 477.522 97.451C477.36 94.549 469.783 83.2632 463.979 80.6836C457.53 77.7816 449.952 76.3305 443.664 80.0387C438.021 82.4571 428.348 89.0673 404.003 117.443C401.101 120.667 397.231 126.633 390.621 132.114C374.015 145.657 349.186 137.435 332.258 131.308C332.258 131.308 337.9 148.398 336.772 161.619C335.643 174.355 323.39 191.445 323.39 191.445C401.907 194.67 434.636 173.711 448.823 159.523C448.823 159.523 464.624 160.329 469.46 155.815Z" fill="#B3233B"/>
<path d="M477.199 87.9388C477.199 87.9388 478.811 73.7509 484.777 61.9815L465.591 51.9855C464.462 65.3672 450.113 77.7816 450.113 77.7816C469.46 83.7469 473.491 93.2592 477.522 97.2898L477.199 87.9388Z" fill="#E2A379"/>
<path d="M493.805 32.316C497.513 22.6425 491.387 15.7098 487.356 12.0016C474.781 0.393376 465.107 1.68318 453.177 5.23014C437.538 9.90567 443.664 52.9528 447.211 59.5631C456.079 76.653 483.326 76.3305 493.644 73.5897C505.091 70.5264 501.06 67.4631 499.287 63.11C499.287 62.9488 499.609 62.1427 499.609 62.1427C499.126 60.5304 498.481 58.4345 498.964 56.1773C498.964 56.1773 498.158 54.8875 497.836 54.2426C497.675 53.759 497.675 53.4365 498.158 53.1141C499.609 51.9855 501.06 51.0181 501.383 50.212C502.834 47.3099 492.193 36.8303 493.805 32.316Z" fill="#F4B382"/>
<path d="M492.838 60.0467C492.838 60.0467 494.128 60.3692 499.287 58.9182C499.771 58.4345 500.738 57.4671 499.448 56.3386C498.32 55.5324 496.385 58.5957 492.838 60.0467Z" fill="#D6876B"/>
<path d="M492.838 60.0468C492.838 60.0468 494.611 62.3039 499.771 62.1427C500.415 61.8202 500.738 61.1753 500.738 60.8529C500.899 59.0794 499.287 58.9182 499.287 58.9182C494.128 60.3692 492.838 60.0468 492.838 60.0468Z" fill="#CC785E"/>
<path d="M451.403 2.81176C432.217 8.45465 414.805 43.6018 450.597 68.4305C453.015 70.0427 457.691 71.4937 462.366 65.206C465.591 60.8529 467.364 55.6937 467.364 55.6937C467.848 54.2426 468.332 52.4692 468.815 50.6957C469.299 48.761 465.43 39.7324 467.203 38.765C485.099 30.2201 490.258 17.9669 488.646 12.969C482.842 1.84442 471.879 -3.15357 451.403 2.81176Z" fill="#602F0F"/>
<path d="M462.527 51.3406C467.848 59.0794 471.556 58.2733 476.554 56.3386L469.783 43.9242L465.591 39.4099C460.593 41.5058 457.046 43.763 462.527 51.3406Z" fill="#F4B382"/>
<path d="M430.121 40.8609C424.479 38.2813 423.834 28.4466 428.67 18.7731C433.507 9.09956 441.891 3.29545 447.534 5.87505C453.177 8.45466 452.532 16.1935 447.856 25.867C442.858 35.5405 435.603 43.4405 430.121 40.8609Z" fill="#4C230C"/>
<path d="M469.783 40.5385C469.138 39.0875 468.654 37.6364 468.332 36.5079C467.848 34.8956 467.848 33.767 467.848 33.767L462.85 37.4752C463.011 38.2813 463.334 39.0875 463.495 39.8936C463.495 39.8936 463.979 39.5711 464.946 38.9262C464.946 38.9262 464.785 38.9262 464.785 39.0875C465.913 40.0548 467.364 41.6671 469.138 44.2467C469.299 44.2467 471.879 45.0528 469.783 40.5385Z" fill="#602F0F"/>
<path d="M426.736 41.1834C420.77 38.6038 420.286 27.8017 425.607 17.322C430.927 6.68116 439.956 0.39336 445.76 2.97296C451.725 5.55257 450.919 14.0975 445.76 24.5772C440.44 35.218 432.701 43.9242 426.736 41.1834Z" fill="#602F0F"/>
<path d="M424.801 23.2874C424.156 22.9649 424.962 20.0629 426.574 16.8384C428.187 13.6139 429.96 11.1955 430.605 11.5179C431.25 11.8404 430.444 14.0975 428.832 17.3221C427.38 20.7078 425.607 23.6098 424.801 23.2874Z" fill="#4C230C"/>
<path d="M231.814 59.0794C230.202 64.8835 255.514 69.0753 262.447 72.7835L272.443 71.3325C325.002 90.5183 351.282 94.0653 351.282 94.0653C382.237 106.963 443.019 122.28 455.595 123.731C468.332 125.182 473.975 100.031 462.044 95.5163C450.113 91.002 438.989 88.4224 426.736 84.8754C414.482 81.3285 368.372 76.3305 357.247 74.2346C355.796 73.9121 276.312 58.112 276.312 58.112C276.312 58.112 273.249 57.1447 268.574 53.7589C262.125 49.2446 251.322 46.665 244.712 47.6324C239.231 48.5997 233.588 53.2753 231.814 59.0794Z" fill="#F4B382"/>
<path d="M255.676 68.108C255.676 68.108 248.098 65.2059 246.163 69.0753C244.551 72.2999 244.229 73.5897 262.447 72.7835C262.447 72.6223 262.931 70.2039 255.676 68.108Z" fill="#F4B382"/>
<path d="M0.778352 86.9714C3.68041 81.0061 30.605 89.551 35.603 88.5836C38.0214 88.1 41.0847 85.1979 46.5663 86.1653C53.8215 87.4551 56.5623 94.0653 59.3031 94.3878C72.6848 96.1612 107.993 105.029 124.116 107.286C127.824 107.769 131.693 108.414 135.563 109.22C151.363 112.284 137.497 142.594 131.855 140.982C109.605 134.21 56.0786 111.155 48.3398 107.769C48.3398 107.769 23.3499 101.643 17.5458 99.7082C13.9988 98.5796 -2.1237 92.9367 0.778352 86.9714Z" fill="#F4B382"/>
<path d="M181.028 122.763C162.971 117.927 151.685 113.412 132.499 108.576C133.789 114.057 131.371 135.823 129.114 140.337C134.757 141.466 175.547 157.427 175.547 157.427C183.124 160.49 286.147 190.156 304.043 186.77C310.653 185.802 316.619 184.351 321.294 182.9C330.645 179.998 323.068 127.761 310.008 126.31C281.633 129.374 230.363 125.504 216.175 124.698C203.116 124.053 181.028 122.763 181.028 122.763Z" fill="#3D3C3C"/>
</svg>
