<svg width="499" height="500" viewBox="0 0 499 500" fill="none" xmlns="http://www.w3.org/2000/svg">
<path d="M493.729 497.864C487.118 497.541 461 498.025 458.581 498.347C452.777 499.154 446.651 496.896 446.812 491.415C446.973 487.223 448.263 483.192 447.618 480.613C444.071 467.553 434.075 427.086 429.883 411.286C428.594 405.965 461.483 395.324 462.128 401.129C464.547 424.345 463.902 473.519 463.741 481.902C463.741 481.902 498.243 483.353 498.565 489.48C498.888 493.027 500.339 498.347 493.729 497.864Z" fill="#E2A379"/>
<path d="M427.142 374.043C426.336 383.394 423.918 391.294 430.045 411.286C435.043 408.867 449.875 402.741 462.29 401.129C461.161 391.778 462.612 347.924 450.52 335.349C437.783 322.128 320.734 352.922 317.993 348.73C317.993 348.73 259.307 388.392 283.652 404.837C313.64 424.667 427.142 374.043 427.142 374.043Z" fill="#333333"/>
<path d="M11.02 494.639C10.3751 488.029 1.34646 466.586 0.701563 464.168C-0.91069 458.525 0.0566592 452.237 5.69954 451.431C9.8914 450.947 14.0833 451.592 16.5016 450.464C28.7548 444.821 66.9652 432.567 81.7979 425.957C85.1836 424.506 88.7306 423.055 92.4387 421.604C107.433 415.961 109.529 449.98 103.886 451.431C81.4754 457.557 26.1752 465.296 17.7914 466.586C17.7914 466.586 26.1752 496.574 20.2098 498.025C16.6629 498.831 11.6649 501.249 11.02 494.639Z" fill="#F4B382"/>
<path d="M142.741 407.255C124.523 411.125 107.433 415.961 92.4387 421.604C95.9857 425.957 103.725 446.433 103.886 451.431C109.529 449.98 153.543 440.629 153.543 440.629C167.409 437.727 249.956 421.282 273.172 409.351C279.299 406.449 332.02 390.971 342.338 367.432C346.207 358.565 298.001 336.638 284.942 338.896C278.654 338.896 268.013 339.863 261.403 343.41C251.407 348.569 244.958 359.855 244.958 359.855C215.131 375.816 186.594 392.261 178.694 396.292C167.086 402.257 142.741 407.255 142.741 407.255Z" fill="#3D3C3C"/>
<path d="M296.55 8.06128C290.423 8.06128 293.648 33.5349 292.036 41.2737L296.228 50.4635C292.519 106.409 302.515 130.754 302.515 130.754C298.807 164.127 294.776 228.456 297.034 241.032C299.13 253.607 324.926 252.156 325.893 239.258C326.86 226.522 326.377 215.075 326.215 202.338C326.215 189.601 324.281 142.04 323.152 130.915C322.991 129.464 309.932 50.4635 309.932 50.4635C309.932 50.4635 310.093 47.239 311.866 41.9186C314.446 34.5022 313.801 23.3777 311.06 17.4123C308.642 12.2531 302.677 8.06128 296.55 8.06128Z" fill="#E2A379"/>
<path d="M294.615 33.5349C294.615 33.5349 295.26 25.4736 291.068 24.6675C287.521 24.0226 286.232 24.1838 292.036 41.2737C292.036 41.2737 294.454 41.1125 294.615 33.5349Z" fill="#E2A379"/>
<path d="M354.269 248.771C354.914 228.94 338.469 223.942 327.667 202.821C326.377 200.242 314.124 192.987 307.675 192.825C300.581 192.664 293.325 193.793 287.844 199.597C283.652 204.111 275.268 218.138 282.201 255.22C283.813 269.569 296.389 328.738 285.264 339.057C285.264 339.057 304.934 354.051 317.832 357.275C330.73 360.5 342.499 367.433 342.499 367.433C356.042 335.671 344.111 282.95 347.014 263.12C347.175 263.281 354.107 254.414 354.269 248.771Z" fill="#B3233B"/>
<path d="M322.024 194.599C322.024 194.599 316.864 180.25 313.64 167.352L292.036 165.901C296.228 178.799 293.164 196.211 293.164 196.211C313.317 194.115 321.701 201.048 327.022 203.144L322.024 194.599Z" fill="#E2A379"/>
<path d="M298.485 116.405C292.842 107.86 283.652 108.666 278.332 109.794C261.564 113.18 256.889 121.725 252.858 133.495C247.376 148.972 286.07 169.125 293.326 170.254C312.35 172.995 327.989 150.907 331.858 140.911C336.05 129.948 331.213 131.399 326.699 130.109C326.538 130.109 326.054 129.303 326.054 129.303C324.603 128.658 322.346 128.174 320.734 126.401C320.734 126.401 319.283 126.239 318.477 126.078C317.993 125.917 317.671 125.756 317.671 125.111C317.671 123.337 317.671 121.564 317.187 120.758C315.897 117.856 301.064 120.435 298.485 116.405Z" fill="#F4B382"/>
<path d="M320.411 133.495C320.411 133.495 321.379 132.688 323.313 127.69C323.313 126.884 322.991 125.595 321.217 126.078C319.928 126.401 321.217 129.786 320.411 133.495Z" fill="#D6876B"/>
<path d="M320.411 133.495C320.411 133.495 323.313 133.333 326.054 129.141C326.215 128.497 325.893 127.69 325.57 127.529C324.281 126.401 323.152 127.69 323.152 127.69C321.379 132.688 320.411 133.495 320.411 133.495Z" fill="#CC785E"/>
<path d="M249.795 133.656C243.184 152.519 261.564 187.183 302.515 172.834C305.256 171.866 309.126 168.803 306.868 161.387C305.256 156.227 302.032 151.874 302.032 151.874C301.064 150.584 300.097 149.295 298.968 147.844C297.679 146.231 288.005 144.135 288.327 142.201C291.874 122.692 284.942 111.407 279.944 109.633C267.368 107.537 256.889 113.503 249.795 133.656Z" fill="#602F0F"/>
<path d="M295.583 153.003C304.934 153.164 306.546 149.778 307.836 144.619L293.809 142.846L287.683 143.491C286.393 148.811 286.232 152.842 295.583 153.003Z" fill="#F4B382"/>
<path d="M268.174 173.156C262.854 176.219 254.47 171.06 249.472 161.387C244.474 151.874 244.635 141.556 249.956 138.493C255.276 135.429 261.242 140.427 266.24 149.94C271.238 159.613 273.334 170.093 268.174 173.156Z" fill="#4C230C"/>
<path d="M291.068 140.75C289.456 140.427 288.005 139.944 287.038 139.621C285.425 138.976 284.458 138.331 284.458 138.331V144.458C285.264 144.78 286.07 145.103 286.876 145.264C286.876 145.264 286.876 144.619 286.876 143.491V143.652C288.327 143.329 290.585 143.007 293.648 143.168C293.809 143.329 296.066 141.717 291.068 140.75Z" fill="#602F0F"/>
<path d="M266.401 176.058C260.758 179.283 251.729 173.478 246.248 162.999C240.766 152.519 240.766 141.395 246.409 138.17C252.052 134.946 258.501 140.427 263.982 150.907C269.625 161.548 272.044 172.834 266.401 176.058Z" fill="#602F0F"/>
<path d="M250.762 167.191C250.117 167.513 248.344 165.256 246.57 162.031C244.958 158.807 243.991 155.905 244.635 155.582C245.28 155.26 246.731 157.195 248.344 160.419C250.117 163.644 251.407 166.707 250.762 167.191Z" fill="#4C230C"/>
<path d="M287.683 0C281.556 0 284.78 25.4736 283.168 33.2124L287.36 42.4022C283.652 98.3474 293.648 122.692 293.648 122.692C289.94 156.066 285.909 220.395 288.166 232.971C290.262 245.546 316.058 244.095 317.026 231.197C317.993 218.46 317.509 207.013 317.348 194.276C317.348 181.54 315.413 133.978 314.285 122.854C314.123 121.403 301.064 42.4022 301.064 42.4022C301.064 42.4022 301.225 39.1777 302.999 33.8573C305.579 26.441 304.934 15.3164 302.193 9.35106C299.774 4.19185 293.809 0 287.683 0Z" fill="#F4B382"/>
<path d="M285.748 25.4736C285.748 25.4736 286.393 17.4123 282.201 16.6062C278.654 15.9613 277.364 16.1225 283.168 33.2124C283.168 33.2124 285.587 33.0512 285.748 25.4736Z" fill="#F4B382"/>
</svg>
